<svg width="441" height="316" fill="none" xmlns="http://www.w3.org/2000/svg"><path d="M205.373 57.561a7.66 7.66 0 0 1-7.657-7.656 34.629 34.629 0 0 0-34.591-34.593 7.658 7.658 0 0 1-7.656-7.656A7.659 7.659 0 0 1 163.125 0a49.963 49.963 0 0 1 49.9 49.9 7.656 7.656 0 0 1-7.652 7.661zM237.144 57.561a7.658 7.658 0 0 1-7.658-7.656 49.965 49.965 0 0 1 49.908-49.9 7.656 7.656 0 0 1 0 15.312A34.632 34.632 0 0 0 244.8 49.91a7.656 7.656 0 0 1-7.656 7.651zM119.67 258.261c-27.983 10.029-51.466 9.012-67.028 6-21.435-4.144-33.924-13.258-35.845-17.215-1.017-2.1-.189-2.7.6-3.195l97.054-56.219v-17.7L9.631 230.651l-.178.1c-8.1 4.989-10.684 14.22-6.436 22.972 5.3 10.913 24.07 21.184 46.712 25.563a131.913 131.913 0 0 0 25.017 2.358c16.48 0 36.399-2.989 58.422-12.233l-3.913-2.259a29.643 29.643 0 0 1-9.585-8.891zM432.099 230.762a2.294 2.294 0 0 0-.179-.1L327.1 169.943v17.7l97.052 56.219c.795.492 1.625 1.1.606 3.195-1.921 3.957-14.409 13.071-35.844 17.215-15.56 3.008-39.041 4.026-67.019-6a29.642 29.642 0 0 1-9.518 8.882l-3.965 2.288c22.013 9.236 41.918 12.221 58.394 12.221 8.395.012 16.771-.778 25.015-2.358 22.642-4.379 41.414-14.65 46.713-25.563 4.249-8.76 1.662-17.991-6.435-22.98z" fill="#231F20"/><path d="m312.345 127.317-76.757-44.3a29.491 29.491 0 0 0-29.561-.006l-76.777 44.31a29.65 29.65 0 0 0-14.795 25.563v88.661a29.699 29.699 0 0 0 14.8 25.618l76.737 44.288a29.49 29.49 0 0 0 29.581.017l76.8-44.322a29.75 29.75 0 0 0 14.723-25.6v-88.661a29.713 29.713 0 0 0-14.751-25.568zm-175.43 13.261 24.835-14.333h118.1l24.806 14.316a14.34 14.34 0 0 1 7.124 12.324v19.438H129.769v-19.435a14.295 14.295 0 0 1 7.146-12.31zm167.777 113.325-24.581 14.186H161.495l-24.572-14.181a14.339 14.339 0 0 1-7.154-12.362v-19.531h182.016v19.531a14.373 14.373 0 0 1-7.093 12.357z" fill="#231F20"/></svg>