<svg width="40" height="28" fill="none" xmlns="http://www.w3.org/2000/svg"><path d="M18.628 5.1a.703.703 0 0 1-.491-.198.67.67 0 0 1-.204-.48c0-.813-.331-1.592-.92-2.166a3.18 3.18 0 0 0-2.217-.9.703.703 0 0 1-.491-.198.67.67 0 0 1 0-.96.703.703 0 0 1 .49-.198c1.2.001 2.351.468 3.2 1.297a4.376 4.376 0 0 1 1.327 3.125.67.67 0 0 1-.203.48.703.703 0 0 1-.491.198zM21.51 5.1a.703.703 0 0 1-.491-.199.671.671 0 0 1-.204-.48 4.376 4.376 0 0 1 1.328-3.124C22.99.467 24.142.002 25.342 0c.184 0 .36.072.49.199a.67.67 0 0 1 0 .96.703.703 0 0 1-.49.198 3.18 3.18 0 0 0-2.218.899 3.034 3.034 0 0 0-.92 2.166.67.67 0 0 1-.203.48.703.703 0 0 1-.491.198zM10.854 22.884c-2.538.889-4.668.798-6.08.532-1.943-.368-3.076-1.175-3.25-1.526-.093-.186-.018-.24.054-.283l8.803-4.981v-1.569l-9.507 5.38-.017.01c-.734.441-.969 1.26-.583 2.035.48.967 2.183 1.877 4.237 2.265.747.14 1.507.21 2.269.209 1.495 0 3.301-.265 5.299-1.084l-.355-.2a2.666 2.666 0 0 1-.87-.788zM39.193 20.447a.217.217 0 0 0-.017-.009l-9.507-5.38v1.569l8.803 4.981c.072.044.147.098.055.283-.175.35-1.307 1.158-3.251 1.526-1.412.266-3.542.356-6.08-.532-.224.321-.519.59-.863.787l-.36.203c1.998.818 3.803 1.082 5.297 1.082.762.002 1.522-.069 2.27-.209 2.053-.388 3.756-1.298 4.236-2.265.386-.776.151-1.594-.583-2.036z" fill="#231F20"/><path d="M28.33 11.281 21.37 7.356a2.724 2.724 0 0 0-2.682 0l-6.964 3.926a2.66 2.66 0 0 0-.98.957c-.235.398-.36.848-.362 1.308v7.856c.002.46.126.911.362 1.31.235.398.573.729.98.96l6.961 3.924a2.723 2.723 0 0 0 2.683.001l6.966-3.927c.406-.232.742-.563.976-.96a2.59 2.59 0 0 0 .36-1.308v-7.856a2.586 2.586 0 0 0-.361-1.307 2.665 2.665 0 0 0-.977-.959zM12.42 12.456l2.252-1.27h10.712l2.25 1.269c.196.111.358.27.472.462.113.191.173.409.174.63v1.722H11.77v-1.722c.002-.221.062-.438.176-.63.113-.191.276-.35.473-.46zm15.217 10.042-2.23 1.257H14.649l-2.229-1.257a1.286 1.286 0 0 1-.474-.463 1.247 1.247 0 0 1-.175-.632v-1.73h16.51v1.73c0 .221-.06.439-.173.63a1.287 1.287 0 0 1-.47.465z" fill="#231F20"/></svg>
