<svg width="191" height="137" viewBox="0 0 191 137" fill="none" xmlns="http://www.w3.org/2000/svg">
<path d="M88.4003 24.897C87.5221 24.8968 86.6799 24.5479 86.0588 23.9269C85.4377 23.306 85.0886 22.4637 85.0883 21.5854C85.084 17.6186 83.5065 13.8156 80.7016 11.0105C77.8967 8.20549 74.0936 6.62751 70.1267 6.62293C69.2485 6.62293 68.4062 6.27392 67.7852 5.6529C67.1642 5.03188 66.8152 4.18961 66.8152 3.31136C66.8152 2.4331 67.1642 1.59084 67.7852 0.969817C68.4062 0.348797 69.2485 0 70.1267 0C75.8488 0.00698217 81.3345 2.28322 85.3806 6.32936C89.4268 10.3755 91.703 15.8612 91.71 21.5833C91.7105 22.4616 91.3621 23.304 90.7415 23.9255C90.1208 24.5469 89.2786 24.8964 88.4003 24.897Z" fill="#231F20"/>
<path d="M102.142 24.897C101.264 24.8968 100.422 24.5479 99.8006 23.9269C99.1795 23.3059 98.8303 22.4636 98.8301 21.5854C98.8373 15.8628 101.114 10.3768 105.161 6.33063C109.207 2.28444 114.694 0.00851519 120.417 0.00210571C121.295 0.00210571 122.137 0.351114 122.758 0.972134C123.379 1.59315 123.728 2.43542 123.728 3.31368C123.728 4.19193 123.379 5.0342 122.758 5.65522C122.137 6.27624 121.295 6.62503 120.417 6.62503C116.45 6.6295 112.646 8.20738 109.841 11.0124C107.036 13.8175 105.458 17.6208 105.454 21.5877C105.453 22.4656 105.104 23.3072 104.483 23.9278C103.862 24.5483 103.02 24.897 102.142 24.897Z" fill="#231F20"/>
<path d="M51.3312 111.706C39.2277 116.044 29.0702 115.604 22.3392 114.301C13.0679 112.509 7.6663 108.567 6.8354 106.855C6.39552 105.947 6.7537 105.687 7.09496 105.473L49.0735 81.1567V73.501L3.73545 99.7638L3.65858 99.8071C0.155072 101.965 -0.962605 105.958 0.874789 109.743C3.16721 114.463 11.2862 118.906 21.0796 120.8C24.6456 121.484 28.2689 121.825 31.8998 121.82C39.0284 121.82 47.6439 120.527 57.1696 116.529L55.477 115.552C53.8261 114.594 52.4097 113.28 51.3312 111.706Z" fill="#231F20"/>
<path d="M186.467 99.8117C186.441 99.7961 186.415 99.7812 186.389 99.7686L141.051 73.5056V81.1615L183.029 105.478C183.373 105.691 183.732 105.954 183.291 106.86C182.46 108.572 177.059 112.514 167.788 114.306C161.057 115.607 150.901 116.047 138.8 111.711C137.729 113.281 136.323 114.593 134.683 115.552L132.968 116.542C142.489 120.537 151.099 121.828 158.225 121.828C161.856 121.833 165.479 121.492 169.045 120.808C178.838 118.914 186.958 114.472 189.25 109.751C191.088 105.963 189.969 101.97 186.467 99.8117Z" fill="#231F20"/>
<path d="M134.669 55.0686L101.469 35.9075C99.5267 34.782 97.3215 34.189 95.0765 34.1886C92.8315 34.1881 90.6261 34.78 88.6832 35.9048L55.4747 55.0703C53.535 56.1934 51.9233 57.8053 50.8005 59.7453C49.6777 61.6853 49.083 63.8856 49.0755 66.1271V104.476C49.0811 106.721 49.675 108.926 50.7982 110.87C51.9214 112.814 53.5345 114.43 55.4769 115.556L88.6682 134.712C90.6113 135.84 92.8178 136.435 95.0645 136.436C97.3112 136.437 99.5182 135.845 101.463 134.72L134.681 115.549C136.615 114.418 138.22 112.801 139.336 110.859C140.453 108.917 141.044 106.717 141.049 104.476V66.1275C141.042 63.888 140.449 61.6895 139.329 59.7497C138.21 57.81 136.604 56.1963 134.669 55.0686ZM58.7901 60.8045L69.532 54.605H120.614L131.343 60.7971C132.276 61.3404 133.052 62.1179 133.592 63.0529C134.133 63.9878 134.42 65.0476 134.425 66.1275V74.535H55.6992V66.129C55.7044 65.0488 55.9924 63.9888 56.5347 63.0546C57.077 62.1204 57.8547 61.3446 58.7901 60.8045ZM131.359 109.821L120.727 115.957H69.4218L58.7935 109.823C57.8554 109.28 57.076 108.501 56.533 107.562C55.9901 106.624 55.7027 105.56 55.6992 104.476V96.0285H134.427V104.476C134.424 105.557 134.14 106.618 133.602 107.556C133.064 108.493 132.291 109.274 131.359 109.821Z" fill="#231F20"/>
</svg>
