<svg width="40" height="15" viewBox="0 0 40 15" fill="none" xmlns="http://www.w3.org/2000/svg">
<path d="M0.519331 4.59852C1.16889 4.34782 1.80135 4.02874 2.41672 3.64128C3.03209 3.24243 3.59618 2.74672 4.10899 2.15414H5.23716V14H3.64746V4.35921C3.51071 4.48457 3.33977 4.61562 3.13465 4.75237C2.94092 4.88911 2.7244 5.02016 2.48509 5.14552C2.25718 5.27087 2.01217 5.39053 1.75007 5.50448C1.49936 5.61844 1.25436 5.7153 1.01505 5.79507L0.519331 4.59852ZM9.94565 14V1.00887L11.5354 0.735371V5.28227C11.8316 5.16831 12.145 5.08284 12.4755 5.02586C12.8174 4.95749 13.1535 4.9233 13.484 4.9233C14.1906 4.9233 14.7774 5.02586 15.2447 5.23099C15.7119 5.42471 16.0822 5.70391 16.3557 6.06857C16.6406 6.42184 16.8401 6.84918 16.954 7.35059C17.068 7.852 17.125 8.4047 17.125 9.00867V14H15.5353V9.35054C15.5353 8.80355 15.4954 8.33632 15.4156 7.94887C15.3472 7.56141 15.2276 7.24803 15.0566 7.00872C14.8857 6.76941 14.6578 6.59847 14.3729 6.49591C14.088 6.38195 13.7347 6.32498 13.3131 6.32498C13.1421 6.32498 12.9655 6.33637 12.7832 6.35916C12.6009 6.38195 12.4242 6.41044 12.2533 6.44463C12.0937 6.46742 11.9456 6.49591 11.8088 6.5301C11.6835 6.56429 11.5923 6.59278 11.5354 6.61557V14H9.94565ZM21.3007 14H19.711V5.11133H21.3007V14ZM20.4973 3.50453C20.2124 3.50453 19.9674 3.41337 19.7623 3.23104C19.5686 3.03731 19.4717 2.7809 19.4717 2.46182C19.4717 2.14274 19.5686 1.89204 19.7623 1.70971C19.9674 1.51598 20.2124 1.41911 20.4973 1.41911C20.7822 1.41911 21.0215 1.51598 21.2153 1.70971C21.4204 1.89204 21.5229 2.14274 21.5229 2.46182C21.5229 2.7809 21.4204 3.03731 21.2153 3.23104C21.0215 3.41337 20.7822 3.50453 20.4973 3.50453ZM30.9745 5.11133C30.5301 6.77511 30.0059 8.37051 29.4019 9.89754C28.8093 11.4246 28.2338 12.7921 27.6754 14H26.2396C25.6812 12.7921 25.1 11.4246 24.496 9.89754C23.9035 8.37051 23.3849 6.77511 22.9405 5.11133H24.6499C24.7866 5.66972 24.9462 6.268 25.1285 6.90616C25.3222 7.53292 25.5216 8.15969 25.7268 8.78645C25.9433 9.40182 26.1598 10.0001 26.3763 10.5813C26.5928 11.1625 26.798 11.681 26.9917 12.1368C27.1854 11.681 27.3905 11.1625 27.6071 10.5813C27.8236 10.0001 28.0344 9.40182 28.2395 8.78645C28.456 8.15969 28.6555 7.53292 28.8378 6.90616C29.0315 6.268 29.1968 5.66972 29.3335 5.11133H30.9745ZM31.8853 9.57276C31.8853 8.78645 31.9992 8.10271 32.2271 7.52153C32.4551 6.92895 32.757 6.43893 33.1331 6.05148C33.5092 5.66402 33.9422 5.37343 34.4322 5.17971C34.9222 4.98598 35.4236 4.88911 35.9365 4.88911C37.133 4.88911 38.0504 5.26517 38.6885 6.01729C39.3267 6.75801 39.6458 7.89189 39.6458 9.41892C39.6458 9.48729 39.6458 9.57846 39.6458 9.69241C39.6458 9.79498 39.6401 9.89184 39.6287 9.98301H33.5434C33.6117 10.9061 33.8795 11.6069 34.3468 12.0855C34.814 12.5641 35.5433 12.8034 36.5347 12.8034C37.0931 12.8034 37.5603 12.7579 37.9364 12.6667C38.3239 12.5641 38.6145 12.4673 38.8082 12.3761L39.0304 13.7094C38.8367 13.812 38.4948 13.9202 38.0048 14.0342C37.5262 14.1481 36.9792 14.2051 36.3638 14.2051C35.5889 14.2051 34.9165 14.0912 34.3468 13.8633C33.7884 13.6239 33.3268 13.2992 32.9622 12.8889C32.5975 12.4787 32.324 11.9944 32.1417 11.436C31.9707 10.8662 31.8853 10.2451 31.8853 9.57276ZM37.9877 8.70099C37.9991 7.98305 37.8168 7.39617 37.4407 6.94035C37.076 6.47312 36.5689 6.23951 35.9194 6.23951C35.5547 6.23951 35.2299 6.31358 34.945 6.46172C34.6715 6.59847 34.4379 6.78081 34.2442 7.00872C34.0505 7.23663 33.8966 7.49874 33.7827 7.79503C33.6801 8.09131 33.6117 8.3933 33.5775 8.70099H37.9877Z" fill="#231F20"/>
</svg>
