<svg width="500" height="154" fill="none" xmlns="http://www.w3.org/2000/svg"><path d="M.25 45.348c3.927-1.53 7.945-3.329 12.238-5.398 4.292-2.07 8.402-4.23 12.42-6.659 4.018-2.429 7.945-4.948 11.598-7.648 3.745-2.699 7.032-5.488 10.046-8.547h21.005V151.16H37.419V55.156c-4.018 2.609-8.584 5.038-13.516 7.198-5.023 2.16-9.863 4.049-14.52 5.578L.25 45.348zM271.129 17.365c0 5.399-1.736 9.628-5.297 12.687-3.562 3.06-7.672 4.589-12.512 4.589-4.84 0-8.95-1.53-12.511-4.589-3.562-3.06-5.297-7.288-5.297-12.687 0-5.398 1.735-9.627 5.297-12.686C244.462 1.529 248.571 0 253.411 0c4.841 0 8.95 1.53 12.512 4.589 3.47 3.149 5.206 7.378 5.206 12.776zm-2.192 133.795h-30.138V47.687h30.138V151.16zM327.855 151.158c-6.85-13.136-13.699-28.432-20.731-46.068-7.032-17.545-13.699-36.71-19.909-57.405h31.507a520.17 520.17 0 0 0 4.749 16.646c1.827 5.939 3.653 11.967 5.662 18.085 1.918 6.119 3.836 12.057 5.845 17.816 1.918 5.758 3.836 10.977 5.754 15.745 1.735-4.678 3.561-9.987 5.57-15.745 2.01-5.759 4.019-11.697 5.937-17.816 1.917-6.118 3.835-12.146 5.57-18.085 1.827-5.938 3.379-11.517 4.749-16.646h30.777c-6.301 20.695-12.877 39.86-19.909 57.405-7.032 17.546-13.881 32.932-20.731 46.068h-24.84zM401.273 100.054c0-9.178 1.462-17.275 4.293-24.114 2.831-6.928 6.666-12.596 11.324-17.275 4.658-4.589 10.046-8.098 16.073-10.437a51.547 51.547 0 0 1 18.722-3.51c14.886 0 26.758 4.5 35.343 13.497 8.676 8.998 12.968 22.224 12.968 39.68 0 1.71-.091 3.599-.182 5.578-.092 2.07-.274 3.869-.366 5.399h-67.581c.64 6.028 3.562 10.797 8.585 14.396 5.023 3.509 11.872 5.308 20.366 5.308 5.479 0 10.867-.449 16.073-1.439 5.297-.99 9.589-2.16 12.877-3.599l4.018 23.843c-1.644.81-3.744 1.62-6.393 2.34-2.648.81-5.662 1.439-8.858 2.069-3.288.63-6.758 1.08-10.503 1.44-3.744.36-7.488.63-11.233.63-9.498 0-17.717-1.35-24.658-4.139-7.032-2.789-12.785-6.568-17.351-11.337-4.567-4.769-8.037-10.437-10.229-17.006-2.192-6.658-3.288-13.766-3.288-21.324zm69.956-11.877c-.092-2.52-.548-4.949-1.279-7.288-.73-2.34-1.826-4.499-3.379-6.298a18.956 18.956 0 0 0-5.753-4.499c-2.375-1.17-5.206-1.8-8.676-1.8-3.288 0-6.21.54-8.585 1.71a18.542 18.542 0 0 0-6.027 4.409c-1.644 1.8-2.831 3.959-3.653 6.388-.914 2.43-1.462 4.859-1.918 7.378h39.27zM182.193 17.096h31.051V151.16h-31.051V94.475h-51.142v56.685H100V17.096h31.051v51.286h51.142V17.096z" fill="#231F20"/></svg>