<svg width="40" height="15" fill="none" xmlns="http://www.w3.org/2000/svg"><path d="M.02 4.417c.314-.149.636-.324.979-.526A12.168 12.168 0 0 0 2.92 2.498c.3-.263.563-.535.804-.833h1.68v13.058h-2.41v-9.35c-.322.253-.687.49-1.082.7-.402.21-.789.395-1.161.544l-.731-2.2zM21.69 1.691c0 .526-.139.938-.423 1.236-.285.298-.614.447-1.001.447-.388 0-.716-.149-1.001-.447-.285-.298-.424-.71-.424-1.236 0-.525.139-.937.424-1.235.292-.307.62-.456 1.008-.456.387 0 .716.149 1 .447.278.307.417.719.417 1.244zm-.175 13.032h-2.411V4.645h2.411v10.078zM26.228 14.723c-.548-1.28-1.096-2.77-1.658-4.487a76.449 76.449 0 0 1-1.593-5.591h2.52c.11.5.235 1.034.38 1.621.147.578.293 1.166.454 1.762.153.595.306 1.174.467 1.735.154.56.307 1.069.46 1.534.14-.456.285-.973.446-1.534.161-.561.322-1.14.475-1.735.154-.596.307-1.184.446-1.762.146-.578.27-1.122.38-1.621h2.462a80.272 80.272 0 0 1-1.593 5.591c-.563 1.71-1.11 3.208-1.658 4.487h-1.988zM32.102 9.746c0-.894.117-1.683.343-2.35a5.267 5.267 0 0 1 .906-1.682 3.778 3.778 0 0 1 1.286-1.016 3.484 3.484 0 0 1 1.498-.342c1.19 0 2.14.438 2.827 1.314C39.656 6.547 40 7.835 40 9.535c0 .167-.008.35-.015.544-.007.201-.022.376-.03.525H34.55c.052.588.285 1.052.687 1.403.402.341.95.517 1.63.517.438 0 .869-.044 1.285-.14.424-.097.767-.21 1.03-.351l.322 2.322c-.132.08-.3.158-.512.228-.211.08-.453.14-.708.202-.263.061-.54.105-.84.14-.3.035-.6.061-.9.061-.759 0-1.416-.131-1.972-.403a3.88 3.88 0 0 1-1.388-1.104 4.628 4.628 0 0 1-.818-1.656 7.927 7.927 0 0 1-.263-2.077zm5.596-1.157a3.234 3.234 0 0 0-.102-.71 1.854 1.854 0 0 0-.27-.614 1.604 1.604 0 0 0-.46-.438 1.315 1.315 0 0 0-.695-.175c-.263 0-.496.052-.686.166-.19.106-.351.255-.483.43a1.854 1.854 0 0 0-.292.622 4.779 4.779 0 0 0-.153.719h3.141zM14.575 1.665h2.485v13.058h-2.485v-5.52h-4.09v5.52H8V1.665h2.484v4.996h4.091V1.665z" fill="#231F20"/></svg>
