<svg width="278" height="98" viewBox="0 0 278 98" fill="none" xmlns="http://www.w3.org/2000/svg">
<path d="M229 98L49 98C21.938 98 1.91789e-06 76.0619 4.28372e-06 48.9999C6.64955e-06 21.938 21.9381 -5.29032e-05 49 -5.05374e-05L229 -6.53189e-05C256.062 -3.24355e-05 278 21.938 278 49C278 76.0619 256.062 98 229 98Z" fill="url(#paint0_linear)"/>
<path d="M78.0255 44.3624C77.535 44.1959 77.0146 44.1363 76.4991 44.1874C75.9837 44.2386 75.4851 44.3993 75.0368 44.6589L41.7939 63.9146C41.7816 63.9218 41.7693 63.929 41.7572 63.9366C40.0748 64.9723 39.5376 66.8899 40.4201 68.7084C41.5208 70.9753 45.4203 73.1094 50.1236 74.0189C51.8363 74.3471 53.5763 74.511 55.3201 74.5085C59.064 74.5085 63.66 73.7715 68.7493 71.3984C72.7023 69.5554 76.4612 65.5302 78.8045 60.6297C81.2733 55.4669 81.7622 50.259 80.146 46.3413C79.954 45.8794 79.6655 45.4639 79.2997 45.1226C78.934 44.7813 78.4995 44.5221 78.0255 44.3624Z" fill="#7CE0D6"/>
<path d="M129.553 63.9367C129.541 63.9291 129.529 63.9219 129.516 63.9147L96.2743 44.6589C95.826 44.3993 95.3275 44.2386 94.812 44.1874C94.2966 44.1363 93.7761 44.196 93.2856 44.3624C92.8114 44.522 92.3768 44.7812 92.011 45.1226C91.6451 45.4639 91.3565 45.8795 91.1645 46.3416C89.5483 50.2591 90.036 55.467 92.506 60.6298C94.8491 65.5297 98.6078 69.5551 102.56 71.3985C107.65 73.7716 112.245 74.5086 115.989 74.5086C117.733 74.5111 119.473 74.3472 121.185 74.019C125.889 73.1095 129.788 70.9754 130.889 68.7089C131.773 66.8906 131.236 64.9726 129.553 63.9367Z" fill="#7CE0D6"/>
<path fill-rule="evenodd" clip-rule="evenodd" d="M72.0888 17.5905C72.0888 16.7121 72.8009 16 73.6793 16C76.4287 16 79.0656 17.0922 81.0098 19.0364C82.9539 20.9805 84.0462 23.6174 84.0462 26.3668C84.0462 27.2452 83.3341 27.9573 82.4557 27.9573C81.5773 27.9573 80.8653 27.2452 80.8653 26.3668C80.8653 24.461 80.1082 22.6333 78.7605 21.2856C77.4129 19.938 75.5851 19.1809 73.6793 19.1809C72.8009 19.1809 72.0888 18.4688 72.0888 17.5905Z" fill="#2C3437"/>
<path fill-rule="evenodd" clip-rule="evenodd" d="M97.8315 19.1809C96.8879 19.1809 95.9534 19.3668 95.0816 19.7279C94.2097 20.0891 93.4176 20.6183 92.7504 21.2856C92.0831 21.9529 91.5538 22.7451 91.1927 23.6169C90.8316 24.4887 90.6458 25.4231 90.6458 26.3668C90.6458 27.2452 89.9338 27.9573 89.0554 27.9573C88.177 27.9573 87.4649 27.2453 87.4649 26.3669C87.4649 25.0055 87.7329 23.6575 88.2539 22.3997C88.7749 21.1419 89.5385 19.9991 90.5011 19.0364C91.4637 18.0738 92.6065 17.3102 93.8643 16.7892C95.122 16.2682 96.4701 16 97.8315 16C98.7099 16 99.422 16.7121 99.422 17.5905C99.422 18.4688 98.7099 19.1809 97.8315 19.1809Z" fill="#2C3437"/>
<path d="M101.336 71.6906H66.9774L82.5853 80.698C83.5187 81.2393 84.5784 81.5247 85.6574 81.5253C86.7363 81.5259 87.7964 81.2418 88.7304 80.7015L104.345 71.6902L101.336 71.6906Z" fill="#2C3437"/>
<path d="M106.151 51.7964H63.5693V62.1196H107.742V51.7964H106.151Z" fill="#2C3437"/>
<path d="M104.677 42.4477L104.292 42.2251H67.0312L66.6436 42.449C65.712 42.9883 64.9379 43.7625 64.3987 44.6942C63.8594 45.626 63.5738 46.6827 63.5703 47.7593V51.7963H107.743V47.7599C107.739 46.6841 107.454 45.628 106.916 44.6963C106.379 43.7645 105.607 42.9894 104.677 42.4477Z" fill="#FFDD0F"/>
<path d="M106.151 62.1191H63.5693V66.1764C63.5719 67.255 63.8572 68.314 64.3968 69.248C64.9364 70.1819 65.7114 70.958 66.6446 71.499L66.9774 71.6912H104.345L104.684 71.4955C105.612 70.9519 106.383 70.1753 106.919 69.2425C107.455 68.3097 107.738 67.2531 107.741 66.1772V62.12L106.151 62.1191Z" fill="#FFDD0F"/>
<path d="M88.7321 33.2454C87.7992 32.7049 86.7401 32.4201 85.662 32.4199C84.5838 32.4197 83.5247 32.7041 82.5916 33.2443L67.0303 42.225H104.292L88.7321 33.2454Z" fill="#2C3437"/>
<path d="M153.052 38.8112C152.748 38.8112 152.416 38.8042 152.055 38.7902C151.708 38.7762 151.354 38.7552 150.993 38.7273C150.647 38.6993 150.3 38.6643 149.953 38.6224C149.607 38.5804 149.289 38.5245 149 38.4545V24.3566C149.289 24.2867 149.607 24.2308 149.953 24.1888C150.3 24.1469 150.647 24.1119 150.993 24.0839C151.354 24.0559 151.708 24.035 152.055 24.021C152.402 24.007 152.727 24 153.03 24C153.897 24 154.706 24.0629 155.457 24.1888C156.222 24.3147 156.88 24.5315 157.429 24.8392C157.992 25.1329 158.432 25.5245 158.75 26.014C159.068 26.5035 159.227 27.1049 159.227 27.8182C159.227 28.6154 159.032 29.2727 158.642 29.7902C158.252 30.2937 157.732 30.6713 157.082 30.9231C157.963 31.1748 158.664 31.5734 159.184 32.1189C159.704 32.6643 159.964 33.4336 159.964 34.4266C159.964 35.8811 159.407 36.979 158.295 37.7203C157.197 38.4476 155.45 38.8112 153.052 38.8112ZM151.08 31.9091V37.028C151.239 37.042 151.427 37.0559 151.643 37.0699C151.831 37.0839 152.048 37.0979 152.293 37.1119C152.553 37.1119 152.85 37.1119 153.182 37.1119C153.803 37.1119 154.388 37.0769 154.937 37.007C155.5 36.9231 155.991 36.7832 156.41 36.5874C156.829 36.3916 157.161 36.1189 157.407 35.7692C157.667 35.4196 157.797 34.979 157.797 34.4476C157.797 33.972 157.703 33.5734 157.515 33.2517C157.327 32.9161 157.053 32.6503 156.692 32.4545C156.345 32.2587 155.926 32.1189 155.435 32.035C154.944 31.951 154.395 31.9091 153.788 31.9091H151.08ZM151.08 30.2727H153.29C153.81 30.2727 154.301 30.2378 154.763 30.1678C155.226 30.0979 155.623 29.972 155.955 29.7902C156.302 29.6084 156.569 29.3706 156.757 29.0769C156.959 28.7832 157.06 28.4126 157.06 27.965C157.06 27.5455 156.959 27.1958 156.757 26.9161C156.555 26.6224 156.273 26.3916 155.912 26.2238C155.565 26.042 155.153 25.9091 154.677 25.8252C154.2 25.7413 153.695 25.6993 153.16 25.6993C152.626 25.6993 152.207 25.7063 151.903 25.7203C151.6 25.7343 151.326 25.7552 151.08 25.7832V30.2727Z" fill="#2C3437"/>
<path d="M168.513 39C167.531 39 166.678 38.8531 165.956 38.5594C165.234 38.2657 164.642 37.8671 164.18 37.3636C163.717 36.8462 163.371 36.2378 163.139 35.5385C162.923 34.8392 162.814 34.0839 162.814 33.2727V24.1469H164.916V33.042C164.916 34.4965 165.248 35.5524 165.913 36.2098C166.577 36.8671 167.444 37.1958 168.513 37.1958C169.047 37.1958 169.531 37.1189 169.965 36.965C170.412 36.7972 170.795 36.5455 171.113 36.2098C171.431 35.8741 171.676 35.4476 171.85 34.9301C172.023 34.3986 172.11 33.7692 172.11 33.042V24.1469H174.211V33.2727C174.211 34.0839 174.096 34.8392 173.865 35.5385C173.648 36.2378 173.301 36.8462 172.825 37.3636C172.362 37.8671 171.77 38.2657 171.048 38.5594C170.34 38.8531 169.495 39 168.513 39Z" fill="#2C3437"/>
<path d="M177.84 24.1469H179.942V38.6853H177.84V24.1469Z" fill="#2C3437"/>
<path d="M192.694 36.9231V38.6853H183.659V24.1469H185.761V36.9231H192.694Z" fill="#2C3437"/>
<path d="M202.43 24.1469V25.9091H197.706V38.6853H195.604V25.9091H190.881V24.1469H202.43Z" fill="#2C3437"/>
<path d="M213.715 38.8112C213.412 38.8112 213.08 38.8042 212.719 38.7902C212.372 38.7762 212.018 38.7552 211.657 38.7273C211.31 38.6993 210.964 38.6643 210.617 38.6224C210.27 38.5804 209.953 38.5245 209.664 38.4545V24.3566C209.953 24.2867 210.27 24.2308 210.617 24.1888C210.964 24.1469 211.31 24.1119 211.657 24.0839C212.018 24.0559 212.372 24.035 212.719 24.021C213.065 24.007 213.39 24 213.694 24C214.561 24 215.369 24.0629 216.121 24.1888C216.886 24.3147 217.543 24.5315 218.092 24.8392C218.656 25.1329 219.096 25.5245 219.414 26.014C219.732 26.5035 219.891 27.1049 219.891 27.8182C219.891 28.6154 219.696 29.2727 219.306 29.7902C218.916 30.2937 218.396 30.6713 217.746 30.9231C218.627 31.1748 219.327 31.5734 219.847 32.1189C220.367 32.6643 220.627 33.4336 220.627 34.4266C220.627 35.8811 220.071 36.979 218.959 37.7203C217.861 38.4476 216.113 38.8112 213.715 38.8112ZM211.744 31.9091V37.028C211.903 37.042 212.09 37.0559 212.307 37.0699C212.495 37.0839 212.712 37.0979 212.957 37.1119C213.217 37.1119 213.513 37.1119 213.846 37.1119C214.467 37.1119 215.052 37.0769 215.601 37.007C216.164 36.9231 216.655 36.7832 217.074 36.5874C217.493 36.3916 217.825 36.1189 218.071 35.7692C218.331 35.4196 218.461 34.979 218.461 34.4476C218.461 33.972 218.367 33.5734 218.179 33.2517C217.991 32.9161 217.717 32.6503 217.356 32.4545C217.009 32.2587 216.59 32.1189 216.099 32.035C215.608 31.951 215.059 31.9091 214.452 31.9091H211.744ZM211.744 30.2727H213.954C214.474 30.2727 214.965 30.2378 215.427 30.1678C215.889 30.0979 216.287 29.972 216.619 29.7902C216.966 29.6084 217.233 29.3706 217.421 29.0769C217.623 28.7832 217.724 28.4126 217.724 27.965C217.724 27.5455 217.623 27.1958 217.421 26.9161C217.218 26.6224 216.937 26.3916 216.576 26.2238C216.229 26.042 215.817 25.9091 215.341 25.8252C214.864 25.7413 214.358 25.6993 213.824 25.6993C213.289 25.6993 212.87 25.7063 212.567 25.7203C212.264 25.7343 211.989 25.7552 211.744 25.7832V30.2727Z" fill="#2C3437"/>
<path d="M226.612 38.6853V32.8531C225.615 31.3566 224.676 29.8811 223.795 28.4266C222.914 26.972 222.083 25.5455 221.303 24.1469H223.773C224.322 25.2937 224.936 26.4615 225.615 27.6503C226.294 28.8252 226.994 29.958 227.717 31.049C228.424 29.958 229.118 28.8252 229.797 27.6503C230.475 26.4615 231.097 25.2937 231.66 24.1469H234C233.22 25.5455 232.389 26.972 231.508 28.4266C230.627 29.8671 229.695 31.3287 228.713 32.8112V38.6853H226.612Z" fill="#2C3437"/>
<path d="M156.867 73.739C155.487 73.739 154.094 73.6892 152.689 73.5898C151.284 73.5152 150.054 73.3412 149 73.0677V47.9696C149.552 47.8702 150.142 47.7831 150.769 47.7086C151.397 47.6091 152.036 47.5345 152.689 47.4848C153.341 47.4351 153.981 47.3978 154.609 47.3729C155.261 47.3481 155.876 47.3356 156.453 47.3356C158.034 47.3356 159.502 47.4599 160.857 47.7086C162.212 47.9323 163.379 48.3177 164.358 48.8646C165.362 49.4116 166.14 50.1326 166.692 51.0276C167.244 51.9227 167.52 53.029 167.52 54.3467C167.52 55.5649 167.219 56.6091 166.617 57.4793C166.039 58.3494 165.224 59.0456 164.17 59.5677C165.751 60.0898 166.918 60.8605 167.671 61.8798C168.423 62.8992 168.8 64.192 168.8 65.7583C168.8 68.4185 167.821 70.4199 165.864 71.7624C163.906 73.0801 160.907 73.739 156.867 73.739ZM153.668 61.8052V69.674C154.195 69.7238 154.759 69.7611 155.362 69.7859C155.964 69.8108 156.516 69.8232 157.018 69.8232C157.996 69.8232 158.9 69.7611 159.728 69.6367C160.581 69.5124 161.309 69.3011 161.911 69.0028C162.539 68.6796 163.028 68.2569 163.379 67.7348C163.756 67.2127 163.944 66.5414 163.944 65.721C163.944 64.2541 163.404 63.2348 162.325 62.663C161.246 62.0912 159.753 61.8052 157.846 61.8052H153.668ZM153.668 58.1133H157.018C158.825 58.1133 160.242 57.8646 161.271 57.3674C162.3 56.8453 162.815 55.9254 162.815 54.6077C162.815 53.3646 162.275 52.482 161.196 51.9599C160.142 51.4378 158.762 51.1768 157.055 51.1768C156.328 51.1768 155.675 51.1892 155.098 51.2141C154.546 51.239 154.069 51.2762 153.668 51.326V58.1133Z" fill="#2C3437"/>
<path d="M173.739 73.4406V47.5967H190.49V51.587H178.482V57.9641H189.173V61.8798H178.482V69.4503H191.394V73.4406H173.739Z" fill="#2C3437"/>
<path d="M195.795 73.4406V47.5967H212.546V51.587H200.538V57.9641H211.229V61.8798H200.538V69.4503H213.45V73.4406H195.795Z" fill="#2C3437"/>
<path d="M224.175 69.9351C225.882 69.9351 227.124 69.6492 227.902 69.0773C228.68 68.5055 229.069 67.6975 229.069 66.6533C229.069 66.0318 228.931 65.4972 228.655 65.0497C228.404 64.6022 228.027 64.2044 227.526 63.8564C227.049 63.4834 226.459 63.1478 225.756 62.8494C225.054 62.5262 224.251 62.2155 223.347 61.9171C222.444 61.5939 221.566 61.2459 220.712 60.8729C219.884 60.4751 219.144 59.9903 218.491 59.4185C217.864 58.8467 217.35 58.163 216.948 57.3674C216.572 56.5718 216.383 55.6146 216.383 54.4959C216.383 52.1588 217.199 50.3315 218.83 49.0138C220.461 47.6713 222.682 47 225.493 47C227.124 47 228.567 47.1865 229.822 47.5594C231.102 47.9075 232.105 48.2928 232.833 48.7155L231.365 52.5193C230.512 52.047 229.571 51.6865 228.542 51.4378C227.538 51.1892 226.497 51.0649 225.418 51.0649C224.138 51.0649 223.134 51.326 222.406 51.8481C221.704 52.3702 221.352 53.1036 221.352 54.0483C221.352 54.6202 221.465 55.1174 221.691 55.5401C221.942 55.9378 222.281 56.2983 222.707 56.6215C223.159 56.9448 223.673 57.2431 224.251 57.5166C224.853 57.7901 225.505 58.0511 226.208 58.2997C227.438 58.7472 228.529 59.2072 229.483 59.6796C230.462 60.1271 231.277 60.674 231.93 61.3204C232.607 61.942 233.122 62.6878 233.473 63.558C233.824 64.4033 234 65.4351 234 66.6533C234 68.9903 233.159 70.8052 231.478 72.0981C229.822 73.366 227.388 74 224.175 74C223.096 74 222.105 73.9254 221.202 73.7762C220.323 73.6519 219.533 73.4903 218.83 73.2914C218.153 73.0925 217.563 72.8936 217.061 72.6947C216.559 72.471 216.158 72.2721 215.856 72.0981L217.249 68.2569C217.927 68.6298 218.843 69.0028 219.997 69.3757C221.151 69.7486 222.544 69.9351 224.175 69.9351Z" fill="#2C3437"/>
<defs>
<linearGradient id="paint0_linear" x1="323.078" y1="113.899" x2="123.926" y2="-110.154" gradientUnits="userSpaceOnUse">
<stop stop-color="#FFE1D5"/>
<stop offset="0.494792" stop-color="#FCFCF0"/>
<stop offset="1" stop-color="#E5F9F7"/>
</linearGradient>
</defs>
</svg>
